<?xml version="1.0" encoding="utf-8"?>
<!-- Generator: Adobe Illustrator 27.8.0, SVG Export Plug-In . SVG Version: 6.00 Build 0)  -->
<svg version="1.1" id="Cardiology" xmlns="http://www.w3.org/2000/svg" xmlns:xlink="http://www.w3.org/1999/xlink" x="0px" y="0px"
	 viewBox="0 0 24 24" style="enable-background:new 0 0 24 24;" xml:space="preserve">
<style type="text/css">
	.st0{fill:#9473A5;}
	.st1{opacity:0.6;fill:#9473A5;enable-background:new    ;}
	.st2{opacity:0.15;fill:#9473A5;enable-background:new    ;}
</style>
<g>
	<path class="st0" d="M23.2,11.7L23.2,11.7c0-0.7-0.2-1.2-0.6-1.6c0-0.4,0-0.7-0.4-1.1c0-0.9-0.2-1.7-0.7-2.2
		C21.4,6,20.8,5.4,19.9,5c-0.5-1.4-1.7-2.2-3.2-2.2c-0.5-0.5-1.3-1-2.7-1c-0.1,0-0.3,0-0.4,0h-0.1c-0.3-0.1-1.3-0.3-2.6-0.3
		c-0.7,0-1.4,0.1-2.1,0.2c-0.3,0-0.5,0.1-0.7,0.2C7.9,2,7.6,2.1,7.2,2.2C7,2.2,6.8,2.3,6.6,2.3C6,2.4,5.4,2.5,5,3.3l0,0
		c-0.1,0-0.3-0.1-0.4-0.1c0,0,0,0-0.1,0c-0.8,0-1.4,0.4-1.6,1.1c0,0.2-0.1,0.3-0.3,0.4C2,4.9,1.6,5.3,1.4,5.6c0,0.1-0.1,0.3-0.2,0.4
		C1.1,6.3,1,6.5,0.9,6.8C0.7,7.4,0.8,8,1.2,8.5C1,9,1,9.6,1.4,10l0,0c0,0.5,0.2,1.1,0.5,1.5c0.8,1,2,1.5,2.7,1.5c0.1,0,0.2,0,0.2,0
		l0,0l0,0c-0.1,0.6,0.2,1.2,0.8,1.6l0,0c0.2,0.4,0.5,0.7,0.9,0.8c0.5,0.2,1.1,0.3,1.9,0.3c1,0,1.8-0.1,1.9-0.2l0,0l0,0l0,0
		c0.1,0.3,0.4,1.3,1.4,1.7c0.1,0.2,0.2,0.4,0.4,0.6l0,0c0.3,0.4,0.7,0.9,1.1,1.7c0.7,1.5,1.1,3.1,1.1,3.1l1.6-0.3
		c0,0-0.5-1.8-0.7-2.9c-0.1-0.6,0.2-0.6,0.4-0.6c0.6,0.1,1.1,0.2,1.6,0.2c1,0,1.7-0.3,2.2-0.8c0.7-0.8,0.4-2,0.4-2.2
		c0.2,0,0.3,0,0.4,0l0,0c0.6,0,1.3-0.3,1.8-0.9C23.3,13.9,23.2,12.3,23.2,11.7z M21.3,14.3c-0.3,0.4-0.7,0.6-1,0.6s-0.8-0.1-1.3-0.3
		c-0.3-0.1-0.6,0.2-0.5,0.5l0.3,1.1c0.1,0.2,0.1,0.9-0.2,1.3c-0.3,0.3-0.8,0.4-1.3,0.4c-0.6,0-1.3-0.1-2.2-0.4l-0.3-0.1
		c-0.3-0.1-0.5,0-0.7,0.1s-0.5,0.1-0.6-0.1c-0.1-0.1-0.1-0.1-0.1-0.2c-0.2-0.2-0.3-0.4-0.4-0.6c-0.1-0.2-0.3-0.4-0.6-0.6
		c-0.5-0.2-0.7-0.9-0.7-0.9c-0.1-0.6-0.7-1-1.3-0.9l0,0c0,0-0.8,0.1-1.8,0.1c-0.8,0-1.3-0.1-1.5-0.2c-0.2-0.1-0.3-0.2-0.3-0.3
		s-0.1-0.2-0.2-0.3l-0.2-0.1C6,13.3,6,13.2,6,13.1l0.1-0.7c0-0.4-0.2-0.7-0.7-0.6c0,0-0.4,0.1-0.8,0.1c-0.7,0-2.4-0.9-2-2.2
		C2.2,9.4,2.1,9,2.3,8.6l0.1-0.1c0.1-0.2,0-0.4-0.1-0.5l0,0C2,7.8,1.8,7.5,2,7.1c0-0.2,0.1-0.4,0.2-0.6c0.1-0.1,0.1-0.2,0.2-0.3
		C2.5,6,2.8,5.8,3.1,5.7c0.4-0.2,0.8-0.6,0.9-1c0.1-0.3,0.4-0.3,0.6-0.3c0.1,0,0.1,0,0.2,0c0.5,0.1,1-0.1,1.2-0.6l0,0
		c0.1-0.2,0.2-0.3,0.8-0.4c0.2,0,0.4-0.1,0.7-0.1C8,3.2,8.2,3,8.5,3c0.2-0.1,0.4-0.1,0.6-0.2c0.6-0.1,1.2-0.2,1.9-0.2
		c1.1,0,2,0.2,2.3,0.3L13.6,3c0,0,1.7-0.2,2.5,0.7C16.2,3.9,16.5,4,16.7,4c1.6,0,2.1,1,2.3,1.6c0.1,0.2,0.2,0.4,0.4,0.5
		c0.4,0.2,1,0.5,1.1,1.1c0,0.2,0.1,0.4,0.2,0.5c0.4,0.4,0.5,1.1,0.5,1.5c0,0.2,0.1,0.4,0.2,0.5l0,0c0.2,0.2,0.2,0.2,0.1,0.5
		c0,0.3,0,0.5,0.2,0.7c0.3,0.2,0.3,0.5,0.3,0.8C22.1,12.2,22.1,13.4,21.3,14.3z"/>
	<path class="st1" d="M20.1,11.2H20l-0.6-2.1C19.7,8.8,20,8.4,20,7.8c0-0.8-0.6-1.4-1.4-1.4c-0.4,0-0.7,0.1-1,0.4l-1.8-1.3
		c0.1-0.2,0.1-0.4,0.1-0.6c0-0.8-0.6-1.4-1.4-1.4c-0.7,0-1.3,0.5-1.4,1.2L8.7,5C8.6,4.3,8,3.9,7.4,3.9C6.6,3.9,6,4.5,6,5.3
		c0,0.4,0.2,0.8,0.4,1L5.1,8.5C4.9,8.4,4.8,8.4,4.6,8.4C3.8,8.4,3.2,9,3.2,9.8s0.6,1.4,1.4,1.4c0.4,0,0.7-0.1,0.9-0.3l1.3,1
		c-0.1,0.2-0.1,0.4-0.1,0.6c0,0.8,0.6,1.4,1.4,1.4c0.7,0,1.3-0.5,1.4-1.2l3.3-0.3c0.2,0.6,0.7,1,1.3,1c0.2,0,0.3,0,0.5-0.1l1,1.6
		c-0.3,0.3-0.4,0.6-0.4,1c0,0.8,0.6,1.4,1.4,1.4s1.4-0.6,1.4-1.4s-0.6-1.4-1.4-1.4c-0.2,0-0.3,0-0.5,0.1l-1-1.6
		c0.2-0.2,0.3-0.4,0.4-0.6l3.2,0.3c0.1,0.7,0.7,1.3,1.4,1.3c0.8,0,1.4-0.6,1.4-1.4C21.5,11.8,20.8,11.2,20.1,11.2z M17.2,15.8
		c0,0.3-0.3,0.6-0.6,0.6c-0.3,0-0.6-0.3-0.6-0.6c0-0.3,0.3-0.6,0.6-0.6C16.9,15.3,17.2,15.5,17.2,15.8z M19.4,11.3
		c-0.3,0.2-0.6,0.5-0.7,0.8l-3.2-0.3c0-0.2-0.1-0.4-0.2-0.6L17.8,9c0.2,0.2,0.5,0.3,0.8,0.3h0.1L19.4,11.3z M13.5,10.7L12,9.1
		c0.1-0.2,0.2-0.4,0.3-0.6l1.8-0.1L14,10.5C13.8,10.6,13.6,10.6,13.5,10.7z M8.1,11.1c-0.4,0-0.7,0.1-0.9,0.3l-1.3-1
		C6,10.2,6,10,6,9.8c0,0,0,0,0-0.1l3.6-0.9C9.7,9,9.8,9.1,9.9,9.2l-1.3,1.9C8.5,11.1,8.3,11.1,8.1,11.1z M8.8,5.5l4.4-0.2
		c0,0.1,0.1,0.3,0.2,0.4l-1.6,1.4c-0.2-0.2-0.5-0.3-0.8-0.3s-0.6,0.1-0.9,0.3L8.6,6C8.7,5.8,8.7,5.7,8.8,5.5z M17.2,7.6l-2.6,0.1
		l0.1-1.4c0.3,0,0.5-0.2,0.8-0.4l1.8,1.3C17.3,7.4,17.3,7.5,17.2,7.6z M14.1,7.8l-1.8,0.1c0-0.1-0.1-0.2-0.2-0.4l1.6-1.4
		c0.1,0.1,0.3,0.2,0.5,0.2L14.1,7.8z M10.3,8.2c0-0.3,0.3-0.6,0.6-0.6s0.6,0.3,0.6,0.6c0,0.3-0.3,0.6-0.6,0.6S10.3,8.6,10.3,8.2z
		 M14.6,8.3l2.6-0.1c0,0.1,0.1,0.3,0.2,0.4L15,10.8c-0.1-0.1-0.3-0.2-0.5-0.2L14.6,8.3z M18.6,7.3c0.3,0,0.6,0.3,0.6,0.6
		s-0.3,0.6-0.6,0.6c-0.3,0-0.6-0.3-0.6-0.6S18.3,7.3,18.6,7.3z M14.5,4.4c0.3,0,0.6,0.3,0.6,0.6c0,0.3-0.3,0.6-0.6,0.6S14,5.3,14,5
		C14,4.6,14.2,4.4,14.5,4.4z M7.4,4.7C7.7,4.7,8,5,8,5.3c0,0.3-0.3,0.6-0.6,0.6c-0.3,0-0.6-0.3-0.6-0.6S7.1,4.7,7.4,4.7z M6.9,6.6
		C7,6.7,7.2,6.7,7.4,6.7c0.3,0,0.6-0.1,0.9-0.3l1.4,1.2C9.6,7.8,9.5,8,9.5,8.2c0,0,0,0,0,0.1L5.9,9.2C5.8,9,5.7,8.9,5.6,8.8L6.9,6.6
		z M4.6,10.4C4.3,10.4,4,10.1,4,9.8s0.3-0.6,0.6-0.6s0.6,0.3,0.6,0.6S4.9,10.4,4.6,10.4z M8.1,13c-0.3,0-0.6-0.3-0.6-0.6
		s0.3-0.6,0.6-0.6c0.3,0,0.6,0.3,0.6,0.6S8.4,13,8.1,13z M9.1,11.5l1.3-1.9c0.2,0.1,0.3,0.1,0.5,0.1c0.3,0,0.5-0.1,0.7-0.2l1.5,1.6
		c-0.1,0.2-0.2,0.4-0.3,0.7l-3.3,0.3C9.4,11.9,9.3,11.7,9.1,11.5z M13.6,11.9c0-0.3,0.3-0.6,0.6-0.6s0.6,0.3,0.6,0.6
		s-0.3,0.6-0.6,0.6C13.9,12.5,13.6,12.2,13.6,11.9z M20.1,13.1c-0.3,0-0.6-0.3-0.6-0.6s0.3-0.6,0.6-0.6c0.3,0,0.6,0.3,0.6,0.6
		S20.4,13.1,20.1,13.1z"/>
</g>
<circle id="Ellipse_698" class="st2" cx="10" cy="10" r="10"/>
</svg>
