<?xml version="1.0" encoding="utf-8"?>
<!-- Generator: Adobe Illustrator 27.8.0, SVG Export Plug-In . SVG Version: 6.00 Build 0)  -->
<svg version="1.1" id="Layer_1" xmlns="http://www.w3.org/2000/svg" xmlns:xlink="http://www.w3.org/1999/xlink" x="0px" y="0px"
	 viewBox="0 0 24 24" style="enable-background:new 0 0 24 24;" xml:space="preserve">
<style type="text/css">
	.st0{opacity:0.15;fill:#9473A5;enable-background:new    ;}
	.st1{fill:#9473A5;}
	.st2{opacity:0.6;fill:#9473A5;}
</style>
<circle id="Ellipse_698" class="st0" cx="10" cy="10" r="10"/>
<g>
	<path class="st1" d="M1.5,10.7c0-1.3,0-2.5,0-3.8c0-0.4,0.1-0.7,0.4-1c0.4-0.4,0.8-0.5,1.3-0.3C3.7,5.8,4,6.2,4,6.7
		c0,0.7,0,1.3,0,2c0,0.6,0,1.3,0,1.9C4,11,4,11,3.7,11.1c-0.6,0.1-0.9,0.5-1.1,1.1c-0.1,0.5,0,1,0.4,1.3c0.9,0.9,1.7,1.7,2.6,2.6
		c0.3,0.3,0.5,0.5,0.8,0.8c0.1,0.1,0.2,0.1,0.3,0c0.1-0.1,0-0.2,0-0.3c-1.1-1.1-2.2-2.2-3.4-3.3C3,13,2.8,12.6,3,12.1
		c0.2-0.7,1.2-1.1,1.8-0.5c1,1,2.1,2,3.1,3.1c0.7,0.7,1.4,1.4,2.1,2.1c0.5,0.5,0.8,1.2,0.8,1.9c0,1.2,0,2.3,0,3.5
		c0,0.2,0,0.2-0.2,0.2c-1.2,0-2.4,0-3.5,0c-0.2,0-0.2-0.1-0.2-0.2c0-0.3,0-0.6,0-0.9c0-0.5-0.3-0.8-0.6-1.2c-0.9-1-1.9-2-2.8-3
		c-0.5-0.5-0.9-1-1.4-1.5c-0.3-0.3-0.4-0.8-0.4-1.2C1.5,13.2,1.5,12,1.5,10.7z"/>
	<path class="st1" d="M22.5,10.7c0,1.3,0,2.5,0,3.8c0,0.5-0.2,0.9-0.5,1.3c-1.4,1.4-2.7,2.9-4.1,4.3c-0.4,0.4-0.5,0.9-0.5,1.4
		c0,0.2,0,0.5,0,0.7c0,0.1,0,0.2-0.2,0.2c-1.2,0-2.4,0-3.7,0c-0.1,0-0.2-0.1-0.2-0.2c0-1.3,0-2.5,0-3.8c0-0.7,0.4-1.3,0.9-1.8
		c1.6-1.6,3.3-3.3,4.9-4.9c0.2-0.2,0.5-0.4,0.9-0.4c0.6,0,1.1,0.4,1.1,1c0,0.4-0.1,0.7-0.4,1c-1.1,1.1-2.2,2.2-3.3,3.3
		c-0.1,0.1-0.2,0.2,0,0.3c0.1,0,0.2,0,0.3-0.1c0.8-0.8,1.7-1.6,2.5-2.5c0.3-0.3,0.6-0.6,0.9-0.9c0.8-0.8,0.4-2.1-0.7-2.4
		c-0.1,0-0.1,0-0.2,0C20,11,20,10.9,20,10.8c0-1.4,0-2.7,0-4.1c0-0.7,0.5-1.2,1.2-1.2c0.6,0,1.2,0.4,1.3,1.1c0,0.2,0,0.3,0,0.5
		C22.5,8.3,22.5,9.5,22.5,10.7z"/>
	<path class="st2" d="M18.4,7.9c0.1,3.4-2.9,6.4-6.5,6.4c-3.4-0.1-6.3-2.9-6.3-6.5c0-3.4,2.9-6.4,6.6-6.3
		C15.5,1.6,18.4,4.4,18.4,7.9z M12,1.8C8.7,1.8,5.9,4.6,5.9,8c0,3.2,2.7,6,6.2,6c3.3,0,6-2.7,6-6.1C18.1,4.6,15.3,1.8,12,1.8z"/>
	<path class="st1" d="M12,2.6c3,0,5.4,2.4,5.3,5.4c0,2.9-2.4,5.4-5.4,5.3c-2.9,0-5.3-2.4-5.3-5.3C6.6,4.9,9,2.6,12,2.6z M10.5,7.6
		c0,0.7,0.6,1.3,1.3,1.3c0.7,0,1.3-0.6,1.3-1.3c0-0.7-0.6-1.3-1.3-1.3C11.1,6.3,10.5,6.9,10.5,7.6z M15.6,8.2c0.7,0,1.3-0.6,1.3-1.3
		c0-0.7-0.6-1.3-1.3-1.3c-0.7,0-1.3,0.6-1.3,1.3C14.3,7.6,14.9,8.2,15.6,8.2z M14.7,8.5c-0.7,0-1.3,0.6-1.3,1.3
		c0,0.7,0.6,1.3,1.3,1.3c0.7,0,1.3-0.6,1.3-1.3C15.9,9.1,15.4,8.5,14.7,8.5z M9.2,7c0.7,0,1.3-0.6,1.3-1.3c0-0.7-0.6-1.3-1.3-1.3
		c-0.7,0-1.3,0.6-1.3,1.3C7.9,6.5,8.5,7,9.2,7z M12,12.8c0.7,0,1.3-0.6,1.3-1.3c0-0.7-0.6-1.3-1.3-1.3c-0.7,0-1.3,0.6-1.3,1.3
		C10.7,12.2,11.3,12.8,12,12.8z M12.8,3.2c-0.7-0.1-1.3,0.6-1.3,1.2c0,0.7,0.6,1.3,1.3,1.3c0.7,0,1.2-0.6,1.3-1.3
		C14.1,3.9,13.5,3.2,12.8,3.2z M9.1,10.8c0.4,0,0.7,0,1.1,0c0.2,0,0.3,0,0.3-0.2c0-0.7,0-1.4,0-2.1c0-0.2-0.1-0.3-0.2-0.3
		c-0.7,0-1.4,0-2.1,0c-0.2,0-0.2,0.1-0.2,0.3c0,0.7,0,1.4,0,2.1c0,0.2,0.1,0.2,0.2,0.2C8.4,10.8,8.7,10.8,9.1,10.8z"/>
	<path class="st2" d="M9.1,10.5c-0.3,0-0.5,0-0.8,0c-0.1,0-0.2,0-0.2-0.2c0-0.5,0-1.1,0-1.6c0-0.1,0-0.2,0.2-0.2c0.5,0,1.1,0,1.6,0
		c0.1,0,0.2,0,0.2,0.2c0,0.5,0,1.1,0,1.6c0,0.2-0.1,0.2-0.2,0.2C9.6,10.5,9.3,10.5,9.1,10.5C9.1,10.5,9.1,10.5,9.1,10.5z"/>
</g>
</svg>
